<?xml version="1.0" encoding="UTF-8" standalone="no"?>
<svg
   height="596"
   width="2500"
   viewBox="0 0 800 190.80200000000002"
   version="1.1"
   id="svg1"
   sodipodi:docname="AMDLogo.svg"
   inkscape:version="1.3.2 (091e20e, 2023-11-25)"
   xmlns:inkscape="http://www.inkscape.org/namespaces/inkscape"
   xmlns:sodipodi="http://sodipodi.sourceforge.net/DTD/sodipodi-0.dtd"
   xmlns="http://www.w3.org/2000/svg"
   xmlns:svg="http://www.w3.org/2000/svg">
  <defs
     id="defs1" />
  <sodipodi:namedview
     id="namedview1"
     pagecolor="#ffffff"
     bordercolor="#000000"
     borderopacity="0.25"
     inkscape:showpageshadow="2"
     inkscape:pageopacity="0.0"
     inkscape:pagecheckerboard="0"
     inkscape:deskcolor="#d1d1d1"
     inkscape:zoom="0.3304"
     inkscape:cx="1248.4867"
     inkscape:cy="296.61017"
     inkscape:window-width="1312"
     inkscape:window-height="449"
     inkscape:window-x="0"
     inkscape:window-y="38"
     inkscape:window-maximized="0"
     inkscape:current-layer="svg1" />
  <path
     d="M187.888 178.122H143.52l-13.573-32.738H56.003l-12.366 32.738H0L66.667 12.776h47.761zM91.155 52.286L66.912 116.53h50.913zM349.056 12.776h35.88v165.346h-41.219V74.842l-44.608 51.877h-6.301l-44.605-51.877V178.12h-41.219V12.776h35.88l53.092 61.336zM489.375 12.776c60.364 0 91.391 37.573 91.391 82.909 0 47.517-30.058 82.437-96 82.437h-68.369V12.776zm-31.762 135.041h26.906c41.457 0 53.823-28.129 53.823-52.377 0-28.368-15.276-52.363-54.308-52.363h-26.422v104.74zM662.769 51.981L610.797 0H800v189.21l-51.972-51.975V51.981zM662.708 62.397L609.2 115.903v74.899h74.889l53.505-53.506h-74.886z"
     id="path1"
     style="fill:#ffffff" />
</svg>
