<?xml version="1.0" encoding="UTF-8" standalone="no"?>
<svg
   height="800"
   width="1200"
   viewBox="-17.64309 -14.589975 152.90678 87.53985"
   version="1.1"
   id="svg1"
   sodipodi:docname="iOSLogo.svg"
   inkscape:version="1.3.2 (091e20e, 2023-11-25)"
   xmlns:inkscape="http://www.inkscape.org/namespaces/inkscape"
   xmlns:sodipodi="http://sodipodi.sourceforge.net/DTD/sodipodi-0.dtd"
   xmlns="http://www.w3.org/2000/svg"
   xmlns:svg="http://www.w3.org/2000/svg">
  <defs
     id="defs1" />
  <sodipodi:namedview
     id="namedview1"
     pagecolor="#ffffff"
     bordercolor="#000000"
     borderopacity="0.25"
     inkscape:showpageshadow="2"
     inkscape:pageopacity="0.0"
     inkscape:pagecheckerboard="0"
     inkscape:deskcolor="#d1d1d1"
     inkscape:zoom="0.295"
     inkscape:cx="598.30508"
     inkscape:cy="400"
     inkscape:window-width="1312"
     inkscape:window-height="449"
     inkscape:window-x="0"
     inkscape:window-y="38"
     inkscape:window-maximized="0"
     inkscape:current-layer="svg1" />
  <path
     d="M.5468 57.4219h9.7266v-41.406H.5468zm4.8438-46.836c3.0469 0 5.4297-2.3438 5.4297-5.2734C10.8203 2.3437 8.4375 0 5.3906 0 2.3828 0 0 2.3438 0 5.3125c0 2.9297 2.3828 5.2734 5.3906 5.2734zM42.6576.1169c-16.445 0-26.758 11.211-26.758 29.141s10.312 29.102 26.758 29.102c16.406 0 26.719-11.172 26.719-29.102S59.0646.1169 42.6576.1169zm0 8.5938c10.039 0 16.445 7.9688 16.445 20.547 0 12.539-6.4062 20.508-16.445 20.508-10.078 0-16.445-7.9688-16.445-20.508 0-12.578 6.3672-20.547 16.445-20.547zm30.822 32.852c.4297 10.391 8.9453 16.797 21.914 16.797 13.633 0 22.227-6.7188 22.227-17.422 0-8.3984-4.8438-13.125-16.289-15.742l-6.4844-1.4844c-6.9141-1.6406-9.7656-3.8281-9.7656-7.5781 0-4.6875 4.2969-7.8125 10.664-7.8125 6.4453 0 10.859 3.1641 11.328 8.4375h9.6094c-.2344-9.9219-8.4375-16.641-20.859-16.641-12.266 0-20.977 6.7578-20.977 16.758 0 8.0469 4.9219 13.047 15.312 15.43l7.3047 1.7188c7.1094 1.6797 10 4.0234 10 8.0859 0 4.6875-4.7266 8.0469-11.523 8.0469-6.875 0-12.07-3.3984-12.695-8.5938h-9.7656z"
     id="path1"
     style="fill:#ffffff" />
</svg>
