<svg viewBox="0.984 0.695 248.055 58.243" xmlns="http://www.w3.org/2000/svg" width="2500" height="582"><path d="M.984 58h9.727V32.648c0-5 3.281-8.633 7.969-8.633 4.531 0 7.344 2.852 7.344 7.461V58h9.453V32.413c0-4.96 3.203-8.398 7.89-8.398 4.766 0 7.422 2.89 7.422 7.968V58h9.727V29.601c0-8.28-5.352-13.789-13.516-13.789-5.977 0-10.898 3.204-12.891 8.32h-.235c-1.523-5.312-5.703-8.32-11.562-8.32-5.625 0-10 3.165-11.797 7.97h-.195v-7.188H.984V58zm80.822-6.68c-4.218 0-7.03-2.148-7.03-5.547 0-3.28 2.694-5.39 7.382-5.703l9.57-.586v3.164c0 5-4.414 8.672-9.922 8.672zm-2.93 7.344c5.313 0 10.509-2.773 12.892-7.265h.195V58h9.375V29.484c0-8.32-6.68-13.75-16.953-13.75-10.547 0-17.148 5.547-17.578 13.281h9.023c.625-3.437 3.555-5.664 8.164-5.664 4.805 0 7.735 2.5 7.735 6.836v2.969l-10.938.625c-10.078.625-15.742 5.039-15.742 12.383 0 7.46 5.82 12.5 13.828 12.5zm65.159-27.305c-.664-8.71-7.422-15.625-18.36-15.625-12.03 0-19.843 8.32-19.843 21.562 0 13.438 7.812 21.523 19.922 21.523 10.39 0 17.539-6.094 18.32-15.352h-9.18c-.898 4.688-4.102 7.5-9.023 7.5-6.172 0-10.156-5-10.156-13.672 0-8.515 3.945-13.672 10.078-13.672 5.195 0 8.28 3.32 9.062 7.735h9.18zM174.075.695c-16.444 0-26.757 11.211-26.757 29.141s10.312 29.102 26.758 29.102c16.406 0 26.719-11.172 26.719-29.102S190.483.696 174.075.696zm0 8.594c10.04 0 16.446 7.969 16.446 20.547 0 12.539-6.407 20.508-16.445 20.508-10.078 0-16.445-7.969-16.445-20.508 0-12.578 6.367-20.547 16.445-20.547zm30.823 32.852c.43 10.39 8.945 16.797 21.914 16.797 13.633 0 22.227-6.719 22.227-17.422 0-8.398-4.844-13.125-16.29-15.742l-6.484-1.484c-6.914-1.641-9.765-3.829-9.765-7.579 0-4.687 4.297-7.812 10.664-7.812 6.445 0 10.859 3.164 11.328 8.437h9.61c-.235-9.921-8.438-16.64-20.86-16.64-12.266 0-20.977 6.757-20.977 16.757 0 8.047 4.922 13.047 15.312 15.43l7.305 1.72c7.11 1.679 10 4.023 10 8.085 0 4.688-4.727 8.047-11.523 8.047-6.875 0-12.07-3.398-12.695-8.594h-9.766z"/></svg>